<svg width="140" height="181" viewBox="0 0 140 181" fill="none" xmlns="http://www.w3.org/2000/svg">
<path d="M64.6301 26.0272H88.3152V84.03V81.9172C88.3152 88.5627 86.7248 94.3136 83.5441 99.1699C80.3918 103.998 75.9899 107.732 70.3384 110.373C64.6869 112.986 58.1266 114.293 50.6576 114.293C43.1318 114.293 36.5431 112.986 30.8916 110.373C25.2401 107.732 20.8382 103.998 17.6859 99.1699C14.562 94.3136 13 88.5627 13 81.9172V26.0272H36.6851V79.8725C36.6851 82.5704 37.2815 84.9844 38.4743 87.1143C39.667 89.2159 41.3142 90.8631 43.4158 92.0558C45.5457 93.2486 47.9597 93.845 50.6576 93.845C53.3839 93.845 55.7979 93.2486 57.8994 92.0558C60.001 90.8631 61.6482 89.2159 62.8409 87.1143C64.0337 84.9844 64.6301 82.5704 64.6301 79.8725V26.0272Z" fill="#407EB0"/>
<path d="M64.8573 79.1637V26H126.2V50.03H88.5424V60.03H126.2V84.03H88.3152L64.8573 79.1637Z" fill="#407EB0"/>
<path d="M23.614 159.795C20.116 159.795 17.4837 158.823 15.717 156.88C13.9857 154.937 13.12 152.375 13.12 149.195V133.56H22.448V148.135C22.448 151.068 23.773 152.534 26.423 152.534C27.6243 152.534 28.7197 152.251 29.709 151.686C30.6983 151.121 31.511 150.29 32.147 149.195V133.56H41.475V159H32.465V156.244C31.3697 157.41 30.0447 158.293 28.49 158.894C26.9353 159.495 25.31 159.795 23.614 159.795ZM47.6822 140.026H44.1312V133.56H47.6822V130.38C47.6822 126.953 48.7599 124.303 50.9152 122.43C53.1059 120.522 55.9325 119.568 59.3952 119.568C61.3385 119.568 63.0345 119.886 64.4832 120.522V127.942C63.4939 127.447 62.3809 127.2 61.1442 127.2C59.7309 127.2 58.6885 127.518 58.0172 128.154C57.3459 128.79 57.0102 129.797 57.0102 131.175V133.56H62.8932V140.026H57.0102V159H47.6822V140.026ZM64.2112 133.56H73.2212V136.104C75.5885 133.878 78.5918 132.765 82.2312 132.765C84.8812 132.765 87.2308 133.33 89.2802 134.461C91.3295 135.556 92.9195 137.129 94.0502 139.178C95.1808 141.192 95.7462 143.542 95.7462 146.227C95.7462 148.877 95.1808 151.244 94.0502 153.329C92.9195 155.378 91.3295 156.968 89.2802 158.099C87.2662 159.23 84.9165 159.795 82.2312 159.795C80.5352 159.795 78.9098 159.53 77.3552 159C75.8358 158.505 74.5638 157.816 73.5392 156.933V170.607H64.2112V133.56ZM79.7932 152.534C81.7012 152.534 83.2382 151.969 84.4042 150.838C85.5702 149.707 86.1532 148.17 86.1532 146.227C86.1532 144.284 85.5702 142.764 84.4042 141.669C83.2382 140.538 81.7012 139.973 79.7932 139.973C78.3798 139.973 77.1078 140.344 75.9772 141.086C74.8465 141.793 74.0338 142.764 73.5392 144.001V148.506C74.0338 149.743 74.8465 150.732 75.9772 151.474C77.1078 152.181 78.3798 152.534 79.7932 152.534ZM103.834 169.494C102.704 169.494 101.52 169.406 100.283 169.229C99.0468 169.088 98.1281 168.876 97.5275 168.593V161.65C98.5521 162.074 99.7181 162.286 101.025 162.286C102.191 162.286 103.092 162.021 103.728 161.491C104.4 160.996 104.93 160.201 105.318 159.106L105.954 157.41L94.9305 133.56H104.258L110.883 150.096L117.137 133.56H126.465L115.971 160.166C114.735 163.346 113.145 165.696 111.201 167.215C109.293 168.734 106.838 169.494 103.834 169.494Z" fill="#407EB0"/>
</svg>
