<svg width="140" height="140" viewBox="0 0 140 140" fill="none" xmlns="http://www.w3.org/2000/svg">
<path d="M64.6301 26.0272H88.3152V84.03V81.9172C88.3152 88.5627 86.7248 94.3136 83.5441 99.1699C80.3918 103.998 75.9899 107.732 70.3384 110.373C64.6869 112.986 58.1266 114.293 50.6576 114.293C43.1318 114.293 36.5431 112.986 30.8916 110.373C25.2401 107.732 20.8382 103.998 17.6859 99.1699C14.562 94.3136 13 88.5627 13 81.9172V26.0272H36.6851V79.8725C36.6851 82.5704 37.2815 84.9844 38.4743 87.1143C39.667 89.2159 41.3142 90.8631 43.4158 92.0558C45.5457 93.2486 47.9597 93.845 50.6576 93.845C53.3839 93.845 55.7979 93.2486 57.8994 92.0558C60.001 90.8631 61.6482 89.2159 62.8409 87.1143C64.0337 84.9844 64.6301 82.5704 64.6301 79.8725V26.0272Z" fill="black"/>
<path d="M64.8573 79.1637V26H126.2V50.03H88.5424V60.03H126.2V84.03H88.3152L64.8573 79.1637Z" fill="black"/>
</svg>
