<svg width="14" height="14" viewBox="0 0 14 14" fill="none" xmlns="http://www.w3.org/2000/svg">
<path d="M6.16477 3.00272H8.53409V8.59363C8.53409 9.25841 8.375 9.83369 8.05682 10.3195C7.74148 10.8024 7.30114 11.176 6.7358 11.4402C6.17045 11.7016 5.5142 11.8323 4.76705 11.8323C4.0142 11.8323 3.35511 11.7016 2.78977 11.4402C2.22443 11.176 1.78409 10.8024 1.46875 10.3195C1.15625 9.83369 1 9.25841 1 8.59363V3.00272H3.36932V8.38909C3.36932 8.65897 3.42898 8.90045 3.5483 9.11352C3.66761 9.32375 3.83239 9.48852 4.04261 9.60784C4.25568 9.72716 4.49716 9.78681 4.76705 9.78681C5.03977 9.78681 5.28125 9.72716 5.49148 9.60784C5.7017 9.48852 5.86648 9.32375 5.9858 9.11352C6.10511 8.90045 6.16477 8.65897 6.16477 8.38909V3.00272Z" fill="#FFDB62"/>
<path d="M6.1875 8.31818V3H12.3239V4.90909H8.55682V6.40909H11.9489V8.31818H6.1875Z" fill="#FFDB62"/>
</svg>
